Coordinates
version=1
nRows=54
nColumns=12
inDegrees=yes

Units are S.I. units (second, meters, Newtons, ...)
Angles are in degrees

endheader
time	SC_y	SC_z	SC_x	AC_y	AC_z	AC_x	GH_y	GH_z	GH_yy	EL_x	PS_y
       0.0              -31.27           32.9          26.29          69.78         -1.996          19.34         -174.6          74.77         -124.9          43.56          117.7
   0.01102              -31.27           32.9          26.29          69.77         -1.995          19.34         -174.5          74.77         -124.9          43.57          117.7
   0.02204              -31.27           32.9          26.29          69.77         -1.993          19.33         -174.5          74.77         -124.9          43.57          117.7
   0.03306              -31.27           32.9          26.29          69.77         -1.992          19.32         -174.5          74.77         -124.9          43.58          117.7
   0.04408              -31.27           32.9          26.28          69.76          -1.99          19.32         -174.4          74.77         -124.8          43.59          117.6
    0.0551              -31.28           32.9          26.28          69.76         -1.988          19.31         -174.4          74.78         -124.8          43.59          117.6
   0.06612              -31.28           32.9          26.27          69.76         -1.986           19.3         -174.3          74.78         -124.8           43.6          117.6
   0.07714              -31.28           32.9          26.27          69.75         -1.984          19.29         -174.3          74.78         -124.7          43.61          117.6
   0.08816              -31.28          32.91          26.27          69.75         -1.981          19.29         -174.2          74.78         -124.7          43.62          117.6
   0.09918              -31.28          32.91          26.26          69.74         -1.979          19.28         -174.2          74.78         -124.6          43.63          117.6
    0.1102              -31.28          32.91          26.26          69.74         -1.976          19.27         -174.1          74.78         -124.6          43.64          117.6
    0.1212              -31.28          32.91          26.25          69.73         -1.973          19.25         -174.1          74.78         -124.6          43.65          117.5
    0.1322              -31.29          32.91          26.24          69.72          -1.97          19.24         -174.0          74.79         -124.5          43.66          117.5
    0.1433              -31.29          32.91          26.24          69.72         -1.967          19.23         -173.9          74.79         -124.4          43.67          117.5
    0.1543              -31.29          32.92          26.23          69.71         -1.963          19.22         -173.9          74.79         -124.4          43.68          117.5
    0.1653              -31.29          32.92          26.22           69.7         -1.959           19.2         -173.8          74.79         -124.3           43.7          117.5
    0.1763               -31.3          32.92          26.21          69.69         -1.955          19.18         -173.7           74.8         -124.3          43.71          117.4
    0.1873               -31.3          32.92          26.21          69.68          -1.95          19.17         -173.6           74.8         -124.2          43.73          117.4
    0.1984               -31.3          32.92           26.2          69.67         -1.945          19.15         -173.5           74.8         -124.1          43.75          117.4
    0.2094              -31.31          32.93          26.19          69.66         -1.939          19.13         -173.4          74.81         -124.0          43.77          117.3
    0.2204              -31.31          32.93          26.17          69.65         -1.933           19.1         -173.2          74.81         -123.9          43.79          117.3
    0.2314              -31.31          32.93          26.16          69.64         -1.927          19.08         -173.1          74.81         -123.8          43.82          117.3
    0.2424              -31.32          32.94          26.15          69.62         -1.919          19.05         -172.9          74.82         -123.7          43.84          117.2
    0.2535              -31.32          32.94          26.13           69.6         -1.911          19.02         -172.7          74.82         -123.5          43.87          117.2
    0.2645              -31.33          32.95          26.11          69.59         -1.902          18.98         -172.5          74.83         -123.4          43.91          117.1
    0.2755              -31.33          32.95          26.09          69.57         -1.891          18.94         -172.3          74.84         -123.2          43.94          117.1
    0.2865              -31.34          32.96          26.07          69.54          -1.88           18.9         -172.1          74.84         -123.0          43.99          117.0
    0.2975              -31.35          32.96          26.05          69.52         -1.867          18.85         -171.8          74.85         -122.8          44.03          116.9
    0.3086              -31.36          32.97          26.02          69.49         -1.852          18.79         -171.5          74.86         -122.5          44.09          116.8
    0.3196              -31.37          32.98          25.99          69.45         -1.836          18.73         -171.2          74.87         -122.3          44.15          116.7
    0.3306              -31.38          32.99          25.95          69.41         -1.817          18.66         -170.7          74.88         -121.9          44.22          116.6
    0.3416              -31.39           33.0          25.91          69.37         -1.795          18.58         -170.3           74.9         -121.6           44.3          116.5
    0.3526              -31.41          33.01          25.86          69.32          -1.77          18.48         -169.8          74.91         -121.2          44.39          116.3
    0.3637              -31.43          33.03           25.8          69.26          -1.74          18.37         -169.1          74.93         -120.7          44.49          116.2
    0.3747              -31.45          33.05          25.74          69.19         -1.706          18.24         -168.4          74.95         -120.1          44.62          116.0
    0.3857              -31.47          33.07          25.66          69.11         -1.666          18.09         -167.6          74.98         -119.4          44.76          115.7
    0.3967               -31.5          33.09          25.57          69.01         -1.618           17.9         -166.5          75.01         -118.6          44.94          115.4
    0.4077              -31.54          33.12          25.46           68.9         -1.561          17.69         -165.3          75.04         -117.7          45.15          115.1
    0.4188              -31.58          33.15          25.32          68.76         -1.491          17.42         -163.9          75.09         -116.5           45.4          114.7
    0.4298              -31.63           33.2          25.16          68.59         -1.406           17.1         -162.1          75.14         -115.1          45.71          114.2
    0.4408               -31.7          33.25          24.96          68.37         -1.302           16.7         -159.8          75.21         -113.4          46.09          113.6
    0.4518              -31.78          33.32          24.71          68.11         -1.171          16.21         -157.1          75.29         -111.2          46.56          112.8
    0.4628              -31.88           33.4          24.39          67.78         -1.007          15.58         -153.6          75.39         -108.5          47.16          111.8
    0.4739              -32.01          33.51          23.99          67.36        -0.7975          14.79         -149.2          75.52         -105.0          47.92          110.6
    0.4849              -32.17          33.64          23.48          66.81        -0.5298          13.77         -143.5          75.69         -100.5           48.9          109.0
    0.4959              -32.38          33.82          22.81          66.12        -0.1864          12.46         -136.2           75.9         -94.83          50.15          107.0
    0.5069              -32.65          34.04          21.97          65.23         0.2523          10.79         -126.9          76.18         -87.53          51.74          104.4
    0.5179              -32.99          34.32          20.91          64.12         0.8039          8.698         -115.2          76.52         -78.36          53.75          101.1
    0.5289               -33.4          34.66          19.62          62.76          1.476          6.142         -101.0          76.95         -67.18          56.19          97.13
      0.54              -33.88          35.06          18.12          61.19          2.255           3.18          -84.5          77.43         -54.21          59.03          92.52
     0.551               -34.4          35.49           16.5          59.48          3.099       -0.02687         -66.63          77.96         -40.18           62.1          87.53
     0.562              -34.92          35.91          14.88          57.78          3.943         -3.234         -48.76          78.49         -26.14          65.17          82.53
     0.573              -35.39          36.31          13.38           56.2          4.722         -6.196         -32.26          78.98         -13.18           68.0          77.92
     0.584              -35.81          36.65          12.09          54.85          5.394         -8.751         -18.02           79.4           -2.0          70.44          73.94
